<?xml version="1.0" encoding="UTF-8"?>
<svg width="53px" height="52px" viewBox="0 0 53 52" version="1.1" xmlns="http://www.w3.org/2000/svg" xmlns:xlink="http://www.w3.org/1999/xlink">
    <!-- Generator: Sketch 63.1 (92452) - https://sketch.com -->
    <title>audio</title>
    <desc>Created with Sketch.</desc>
    <defs>
        <filter x="-26.7%" y="-27.3%" width="153.3%" height="154.5%" filterUnits="objectBoundingBox" id="filter-1">
            <feOffset dx="0" dy="2" in="SourceAlpha" result="shadowOffsetOuter1"></feOffset>
            <feGaussianBlur stdDeviation="2" in="shadowOffsetOuter1" result="shadowBlurOuter1"></feGaussianBlur>
            <feColorMatrix values="0 0 0 0 0   0 0 0 0 0   0 0 0 0 0  0 0 0 0.5 0" type="matrix" in="shadowBlurOuter1" result="shadowMatrixOuter1"></feColorMatrix>
            <feMerge>
                <feMergeNode in="shadowMatrixOuter1"></feMergeNode>
                <feMergeNode in="SourceGraphic"></feMergeNode>
            </feMerge>
        </filter>
    </defs>
    <g id="Guile-4---All-Steps-w/-New-Stepper-+-Feedback" stroke="none" stroke-width="1" fill="none" fill-rule="evenodd">
        <g id="3.3-Description-Filled-After-Summary" transform="translate(-172.000000, -1240.000000)">
            <g id="Attachments" transform="translate(18.000000, 1200.000000)">
                <g id="Group" transform="translate(0.000000, 42.000000)">
                    <g id="Group-5" transform="translate(157.248704, 0.000000)">
                        <g id="audio" filter="url(#filter-1)" transform="translate(0.834197, 0.000000)">
                            <circle id="Oval" fill="#00467F" cx="22.500864" cy="22" r="22"></circle>
                            <g id="Actions-/-Toggle-/-microphone-/-24" transform="translate(10.165803, 10.000000)" fill="#FFFFFF">
                                <path d="M17.25,10.5 L17.25,12.75 C17.25,15.6494949 14.8994949,18 12,18 C9.10050506,18 6.75,15.6494949 6.75,12.75 L6.75,10.5 L5.25,10.5 L5.25,12.75 C5.25163119,16.1864702 7.83480799,19.0731703 11.25,19.455 L11.25,21 L8.25,21 L8.25,22.5 L15.75,22.5 L15.75,21 L12.75,21 L12.75,19.455 C16.165192,19.0731703 18.7483688,16.1864702 18.75,12.75 L18.75,10.5 L17.25,10.5 Z M12,16.5 C14.0710678,16.5 15.75,14.8210678 15.75,12.75 L15.75,5.25 C15.75,3.17893219 14.0710678,1.5 12,1.5 C9.92893219,1.5 8.25,3.17893219 8.25,5.25 L8.25,12.75 C8.25,14.8210678 9.92893219,16.5 12,16.5 Z M9.75,5.25 C9.75,4.00735931 10.7573593,3 12,3 C13.2426407,3 14.25,4.00735931 14.25,5.25 L14.25,12.75 C14.25,13.9926407 13.2426407,15 12,15 C10.7573593,15 9.75,13.9926407 9.75,12.75 L9.75,5.25 Z" id="Fill"></path>
                            </g>
                        </g>
                    </g>
                </g>
            </g>
        </g>
    </g>
</svg>