<?xml version="1.0" encoding="UTF-8"?>
<svg width="131px" height="32px" viewBox="0 0 131 32" version="1.1" xmlns="http://www.w3.org/2000/svg" xmlns:xlink="http://www.w3.org/1999/xlink">
    <!-- Generator: Sketch 63.1 (92452) - https://sketch.com -->
    <title>BGIS Logo</title>
    <desc>Created with Sketch.</desc>
    <g id="Symbols" stroke="none" stroke-width="1" fill="none" fill-rule="evenodd">
        <g id="Header" fill="#FFFFFF">
            <g id="BGIS-Logo">
                <path d="M0,0 L11.9301322,0 C14.2914949,0 16.0526417,0.102070791 17.2130911,0.30671272 C18.3740221,0.510854302 19.4116344,0.937650306 20.3283364,1.58610004 C21.2440749,2.23454977 22.0080735,3.09764837 22.6184053,4.17589619 C23.2297006,5.25464435 23.5346256,6.46398309 23.5346256,7.8029117 C23.5346256,9.25491873 23.1579252,10.5873428 22.405006,11.7996837 C21.6511234,13.0120245 20.6298894,13.921155 19.3403407,14.5275756 C21.1588115,15.0774569 22.5577094,16.0151073 23.5346256,17.3395258 C24.5115419,18.6654454 25,20.2230256 25,22.0132673 C25,23.4232452 24.684959,24.794196 24.0539134,26.1261197 C23.4228679,27.4585438 22.5605996,28.5227819 21.468072,29.3193344 C20.3750626,30.1158868 19.0286716,30.6057266 17.4264904,30.7883532 C16.4221165,30.901932 13.9995761,30.9714802 10.1583876,31 L0,31 L0,0 Z M6.02576207,5.15957842 L6.02576207,12.3280501 L9.97581795,12.3280501 C12.3236926,12.3280501 13.782323,12.2930258 14.3521908,12.2224769 C15.3845042,12.0953887 16.1952291,11.7256323 16.7858106,11.1122069 C17.3759104,10.4987814 17.6712012,9.69222202 17.6712012,8.69102765 C17.6712012,7.73236277 17.4163744,6.95382281 16.9076843,6.35440709 C16.3989942,5.75549171 15.6422213,5.39223978 14.6378473,5.26515164 C14.0405218,5.19510306 12.3236926,5.15957842 9.48687811,5.15957842 L6.02576207,5.15957842 Z M6.02576207,17.4881289 L6.02576207,25.7773779 L11.6040117,25.7773779 C13.775579,25.7773779 15.1532814,25.7138338 15.737119,25.5867456 C16.6326255,25.4176284 17.3624224,25.0053424 17.9250645,24.3498878 C18.4886701,23.6939329 18.7704729,22.8168246 18.7704729,21.7170618 C18.7704729,20.7869167 18.5537015,19.9973691 18.1187136,19.3489194 C17.6842075,18.7004697 17.0570157,18.2281421 16.2361748,17.9319367 C15.4148522,17.6357312 13.6329916,17.4881289 10.8915565,17.4881289 L6.02576207,17.4881289 Z" id="Fill-1"></path>
                <path d="M43.9700913,20.0948932 L43.9700913,14.8807591 L57,14.8807591 L57,27.2083906 C55.7339282,28.4744662 53.8990905,29.5897116 51.4959702,30.5531277 C49.0933331,31.5175428 46.6588026,32 44.1947949,32 C41.0629584,32 38.3331723,31.3202647 36.0049531,29.9627919 C33.676734,28.605319 31.9274287,26.6625047 30.7565539,24.136846 C29.5851958,21.6111874 29,18.8637782 29,15.8946186 C29,12.6722437 29.6533317,9.80846548 30.9604784,7.30328381 C32.2676251,4.79860157 34.1802634,2.87776252 36.6993597,1.5402672 C38.6192465,0.513921838 41.0088363,0 43.868129,0 C47.584678,0 50.4884283,0.806093145 52.5788965,2.41628168 C54.6683983,4.02796854 56.0132371,6.25496317 56.6119635,9.09776501 L50.607787,10.2584592 C50.1854409,8.73916844 49.3924547,7.53951804 48.2283451,6.65900862 C47.0642355,5.78049694 45.6106691,5.33999251 43.868129,5.33999251 C41.2262914,5.33999251 39.1261585,6.20601823 37.5672471,7.93657136 C36.0083358,9.66712448 35.2293633,12.2357348 35.2293633,15.640904 C35.2293633,19.3132726 36.0184837,22.0686727 37.5981741,23.9051068 C39.1773812,25.7410413 41.2470704,26.6585092 43.8067584,26.6585092 C45.0728302,26.6585092 46.3422847,26.4022974 47.615605,25.888875 C48.8884421,25.3749532 49.9815163,24.7526533 50.893378,24.020477 L50.893378,20.0948932 L43.9700913,20.0948932 Z" id="Fill-2"></path>
                <polygon id="Fill-3" points="63 31 69 31 69 0 63 0"></polygon>
                <path d="M73,21.3897338 L79.0403351,20.7992763 C79.4040851,22.8386755 80.1415102,24.3360317 81.2531065,25.2923432 C82.3651991,26.2481556 83.8638691,26.7268105 85.7520942,26.7268105 C87.7509826,26.7268105 89.2570964,26.3015613 90.2709318,25.4500647 C91.2847672,24.5995664 91.7924292,23.6043236 91.7924292,22.4658338 C91.7924292,21.7341257 91.5790424,21.1122237 91.1522688,20.5991297 C90.7254953,20.0855365 89.9811227,19.6388252 88.9191512,19.2589958 C88.1921474,19.0064418 86.5351741,18.5562366 83.9487276,17.9093788 C80.6203899,17.0798434 78.2860376,16.0601438 76.9436857,14.8507791 C75.0554607,13.1492833 74.1120926,11.0744467 74.1120926,8.6277666 C74.1120926,7.05304696 74.5552424,5.57964843 75.4430307,4.20856924 C76.3313153,2.83749006 77.6106435,1.79283453 79.282008,1.07610001 C80.95238,0.358866377 82.9691334,0 85.3322681,0 C89.1910953,0 92.0961332,0.850997458 94.0468855,2.55249325 C95.9971416,4.25398905 97.0218945,6.52547845 97.1186629,9.36596322 L90.9110921,9.63997941 C90.645103,8.05128445 90.0759061,6.90830253 89.202509,6.212531 C88.3276232,5.51626035 87.0175275,5.16787547 85.2692445,5.16787547 C83.4653817,5.16787547 82.0535551,5.54071717 81.0332685,6.28590146 C80.3757394,6.76455633 80.047223,7.40392744 80.047223,8.20601126 C80.047223,8.93722022 80.3544007,9.56311512 80.9697487,10.0831969 C81.7528286,10.7445292 83.6544523,11.4333131 86.6746199,12.1505467 C89.6942912,12.8677803 91.927905,13.6094708 93.3749653,14.3761172 C94.8225217,15.1427636 95.9549605,16.1904138 96.773274,17.5190679 C97.5905951,18.847722 98,20.4903218 98,22.4448708 C98,24.2162432 97.5102029,25.8763121 96.5320973,27.422582 C95.5534956,28.969351 94.1694589,30.1198197 92.379491,30.8714925 C90.5895232,31.6241636 88.3598793,32 85.6890706,32 C81.8019572,32 78.8165271,31.0970942 76.7337727,29.2892861 C74.6500258,27.4829754 73.4059312,24.8491258 73,21.3897338 Z" id="Fill-4"></path>
                <path d="M113.578363,31 L104,31 C104,24.1520492 108.361468,18.1416383 114.931537,14.7331014 C118.721589,16.9166878 123.329749,18.2009801 128.303829,18.2009801 C129.222262,18.2009801 130.109677,18.1170332 131,18.0345335 C122.840241,18.8894419 116.102964,24.0348129 113.578363,31 Z" id="Fill-5"></path>
                <path d="M114.997432,15 C109.287378,11.6386692 105.438267,6.18770301 105,0 L114.859567,0 C117.522066,6.37520916 123.613307,11.1204436 131,12.2120148 C129.856441,12.0678172 128.691598,11.9713573 127.500633,11.9713573 C122.903662,11.9713573 118.614832,13.0821221 114.997432,15 Z" id="Fill-6"></path>
                <path d="M128.315316,19 C123.36243,19 118.773904,17.6033578 115,15.2287513 C118.608856,13.1841553 122.887555,12 127.473668,12 C128.661821,12 129.823913,12.1028332 130.96477,12.2565582 C130.976835,12.2586569 130.988418,12.2602308 131,12.2618048 L131,18.8189927 C130.11347,18.9087093 129.229837,19 128.315316,19 Z" id="Fill-7"></path>
            </g>
        </g>
    </g>
</svg>