<?xml version="1.0" encoding="UTF-8"?>
<svg width="82px" height="20px" viewBox="0 0 82 20" version="1.1" xmlns="http://www.w3.org/2000/svg" xmlns:xlink="http://www.w3.org/1999/xlink">
    <!-- Generator: Sketch 63.1 (92452) - https://sketch.com -->
    <title>BGIS Logo Copy</title>
    <desc>Created with Sketch.</desc>
    <g id="Symbols" stroke="none" stroke-width="1" fill="none" fill-rule="evenodd">
        <g id="BGIS-Logo-Copy" fill="#00467F">
            <path d="M0,0 L7.15807931,0 C8.57489691,0 9.63158503,0.0625595171 10.3278546,0.187985216 C11.0244133,0.31310425 11.6469806,0.574688897 12.1970018,0.972125829 C12.7464449,1.36956276 13.2048441,1.89855868 13.5710432,2.55942024 C13.9378203,3.22058847 14.1207754,3.96179608 14.1207754,4.78242975 C14.1207754,5.67236955 13.8947551,6.48901658 13.4430036,7.23206417 C12.990674,7.97511177 12.3779336,8.5323208 11.6042044,8.90399793 C12.6952869,9.241022 13.5346256,9.8157109 14.1207754,10.6274513 C14.7069251,11.4401117 15,12.3947577 15,13.4920025 C15,14.3561825 14.8109754,15.1964427 14.4323481,16.0127831 C14.0537208,16.8294301 13.5363598,17.4817051 12.8808432,17.9699146 C12.2250376,18.4581242 11.417203,18.7583485 10.4558943,18.870281 C9.85326988,18.9398938 8.39974565,18.9825201 6.09503256,19 L0,19 L0,0 Z M3.61545724,3.16232226 L3.61545724,7.55590167 L5.98549077,7.55590167 C7.39421558,7.55590167 8.26939381,7.53443517 8.6113145,7.49119551 C9.23070253,7.41330277 9.71713746,7.18667786 10.0714864,6.81070743 C10.4255463,6.434737 10.6027207,5.94039414 10.6027207,5.32675888 C10.6027207,4.73919008 10.4498247,4.26202043 10.1446106,3.8946366 C9.83939651,3.52755944 9.38533277,3.30492115 8.78270839,3.22702842 C8.42431308,3.18409542 7.39421558,3.16232226 5.69212686,3.16232226 L3.61545724,3.16232226 Z M3.61545724,10.7185306 L3.61545724,15.799038 L6.96240703,15.799038 C8.26534741,15.799038 9.09196886,15.7600917 9.44227138,15.6821989 C9.97957532,15.5785464 10.4174535,15.325855 10.7550387,14.9241248 C11.0932021,14.5220879 11.2622837,13.9845054 11.2622837,13.3104573 C11.2622837,12.7403683 11.1322209,12.2564521 10.8712282,11.8590151 C10.6105245,11.4615782 10.2342094,11.1720871 9.74170488,10.9905418 C9.24891133,10.8089966 8.17979498,10.7185306 6.53493391,10.7185306 L3.61545724,10.7185306 Z" id="Fill-1"></path>
            <path d="M27.088984,12.5593083 L27.088984,9.30047447 L35,9.30047447 L35,17.0052441 C34.2313135,17.7965414 33.1173049,18.4935697 31.6582676,19.0957048 C30.1995237,19.6984642 28.7214159,20 27.2254112,20 C25.323939,20 23.6665689,19.5751654 22.2530073,18.7267449 C20.8394457,17.8783244 19.7773674,16.6640654 19.0664791,15.0855288 C18.3552974,13.5069921 18,11.7898614 18,9.9341366 C18,7.92015233 18.3966657,6.13029092 19.1902905,4.56455238 C19.9839152,2.99912598 21.1451599,1.79860157 22.6746113,0.962667 C23.8402568,0.321201149 25.2910792,0 27.0270783,0 C29.2835545,0 31.0465457,0.503808216 32.3157586,1.51017605 C33.5843847,2.51748033 34.400894,3.90935198 34.7644064,5.68610313 L31.1190135,6.41153702 C30.8625891,5.46198027 30.3811332,4.71219878 29.6743524,4.16188038 C28.9675716,3.61281059 28.0850491,3.33749532 27.0270783,3.33749532 C25.4231055,3.33749532 24.1480248,3.87876139 23.2015429,4.9603571 C22.255061,6.0419528 21.7821135,7.64733425 21.7821135,9.77556499 C21.7821135,12.0707954 22.2612222,13.7929205 23.22032,14.9406917 C24.1791243,16.0881508 25.4357213,16.6615682 26.9898176,16.6615682 C27.758504,16.6615682 28.5292443,16.5014359 29.3023316,16.1805469 C30.0751256,15.8593457 30.7387778,15.4704083 31.2924081,15.0127981 L31.2924081,12.5593083 L27.088984,12.5593083 Z" id="Fill-2"></path>
            <polygon id="Fill-3" points="39 19 43 19 43 0 39 0"></polygon>
            <path d="M46,13.3685836 L49.624201,12.9995477 C49.8424511,14.2741722 50.2849061,15.2100198 50.9518639,15.8077145 C51.6191195,16.4050973 52.5183215,16.7042565 53.6512565,16.7042565 C54.8505895,16.7042565 55.7542578,16.4384758 56.3625591,15.9062905 C56.9708603,15.374729 57.2754575,14.7527023 57.2754575,14.0411461 C57.2754575,13.5838286 57.1474255,13.1951398 56.8913613,12.874456 C56.6352972,12.5534603 56.1886736,12.2742657 55.5514907,12.0368724 C55.1152884,11.8790261 54.1211045,11.5976479 52.5692366,11.1933617 C50.5722339,10.6749021 49.1716225,10.0375899 48.3662114,9.28173693 C47.2332764,8.21830206 46.6672555,6.92152918 46.6672555,5.39235412 C46.6672555,4.40815435 46.9331454,3.48728027 47.4658184,2.63035578 C47.9987892,1.77343129 48.7663861,1.12052158 49.7692048,0.672562507 C50.771428,0.224291485 51.98148,0 53.3993608,0 C55.7146572,0 57.4576799,0.531873411 58.6281313,1.59530828 C59.798285,2.65874316 60.4131367,4.07842403 60.4711977,5.85372701 L56.7466553,6.02498713 C56.5870618,5.03205278 56.2455437,4.31768908 55.7215054,3.88283187 C55.1965739,3.44766272 54.4105165,3.22992217 53.3615467,3.22992217 C52.279229,3.22992217 51.4321331,3.46294823 50.8199611,3.92868841 C50.4254436,4.22784771 50.2283338,4.62745465 50.2283338,5.12875704 C50.2283338,5.58576264 50.4126404,5.97694695 50.7818492,6.30199803 C51.2516972,6.71533074 52.3926714,7.14582066 54.2047719,7.59409168 C56.0165747,8.0423627 57.356743,8.50591924 58.2249792,8.98507323 C59.093513,9.46422722 59.7729763,10.1190086 60.2639644,10.9494174 C60.7543571,11.7798262 61,12.8064511 61,14.0280442 C61,15.135152 60.7061217,16.1726951 60.1192584,17.1391138 C59.5320973,18.1058444 58.7016753,18.8248873 57.6276946,19.2946828 C56.5537139,19.7651022 55.2159276,20 53.6134424,20 C51.2811743,20 49.4899162,19.4356839 48.2402636,18.3058038 C46.9900155,17.1768596 46.2435587,15.5307036 46,13.3685836 Z" id="Fill-4"></path>
            <path d="M71.0308209,19 L65,19 C65,14.7902542 67.7461092,11.0953822 71.8828197,9 C74.2691486,10.3423496 77.1705829,11.1318623 80.3024107,11.1318623 C80.8806836,11.1318623 81.4394263,11.0802563 82,11.02954 C76.8623741,11.5550909 72.6203845,14.7181837 71.0308209,19 Z" id="Fill-5"></path>
            <path d="M72.1522661,9 C68.6383865,6.98320155 66.2697031,3.71262181 66,0 L72.0674258,0 C73.7058867,3.8251255 77.4543425,6.67226615 82,7.3272089 C81.2962715,7.24069031 80.5794448,7.1828144 79.8465431,7.1828144 C77.0176379,7.1828144 74.3783583,7.84927327 72.1522661,9 Z" id="Fill-6"></path>
            <path d="M80.3220728,12 C77.2265187,12 74.3586898,11.0023984 72,9.30625094 C74.2555348,7.84582521 76.9297219,7 79.7960427,7 C80.5386379,7 81.2649454,7.07345226 81.9779815,7.18325588 C81.9855221,7.18475491 81.9927611,7.18587918 82,7.18700345 L82,11.870709 C81.445919,11.9347924 80.8936478,12 80.3220728,12 Z" id="Fill-7"></path>
        </g>
    </g>
</svg>