<?xml version="1.0" encoding="UTF-8"?>
<svg width="52px" height="52px" viewBox="0 0 52 52" version="1.1" xmlns="http://www.w3.org/2000/svg" xmlns:xlink="http://www.w3.org/1999/xlink">
    <!-- Generator: Sketch 63.1 (92452) - https://sketch.com -->
    <title>cam</title>
    <desc>Created with Sketch.</desc>
    <defs>
        <filter x="-27.3%" y="-27.3%" width="154.5%" height="154.5%" filterUnits="objectBoundingBox" id="filter-1">
            <feOffset dx="0" dy="2" in="SourceAlpha" result="shadowOffsetOuter1"></feOffset>
            <feGaussianBlur stdDeviation="2" in="shadowOffsetOuter1" result="shadowBlurOuter1"></feGaussianBlur>
            <feColorMatrix values="0 0 0 0 0   0 0 0 0 0   0 0 0 0 0  0 0 0 0.5 0" type="matrix" in="shadowBlurOuter1" result="shadowMatrixOuter1"></feColorMatrix>
            <feMerge>
                <feMergeNode in="shadowMatrixOuter1"></feMergeNode>
                <feMergeNode in="SourceGraphic"></feMergeNode>
            </feMerge>
        </filter>
    </defs>
    <g id="Guile-4---All-Steps-w/-New-Stepper-+-Feedback" stroke="none" stroke-width="1" fill="none" fill-rule="evenodd">
        <g id="2.0-Equipment-Type" transform="translate(-253.000000, -546.000000)">
            <g id="UPC" transform="translate(20.000000, 489.000000)">
                <g id="Equipment-Type" transform="translate(0.000000, 38.000000)">
                    <g id="cam" filter="url(#filter-1)" transform="translate(237.000000, 21.000000)">
                        <circle id="Oval" fill="#00467F" cx="22" cy="22" r="22"></circle>
                        <g id="Tools-/-Technology-/-camera-/-24" transform="translate(10.000000, 10.000000)" fill="#FFFFFF">
                            <path d="M21.75,19.5 L2.25,19.5 C1.83578644,19.5 1.5,19.1642136 1.5,18.75 L1.5,6 C1.5,5.58578644 1.83578644,5.25 2.25,5.25 L7.095,5.25 L8.3775,3.3375 C8.51548762,3.12796109 8.74911068,3.00129799 9,3 L15,3 C15.2508893,3.00129799 15.4845124,3.12796109 15.6225,3.3375 L16.905,5.25 L21.75,5.25 C22.1642136,5.25 22.5,5.58578644 22.5,6 L22.5,18.75 C22.5,19.1642136 22.1642136,19.5 21.75,19.5 Z M3,18 L21,18 L21,6.75 L16.5,6.75 C16.2491107,6.74870201 16.0154876,6.62203891 15.8775,6.4125 L14.595,4.5 L9.405,4.5 L8.1225,6.4125 C7.98451238,6.62203891 7.75088932,6.74870201 7.5,6.75 L3,6.75 L3,18 Z M12,16.5 C9.51471863,16.5 7.5,14.4852814 7.5,12 C7.5,9.51471863 9.51471863,7.5 12,7.5 C14.4852814,7.5 16.5,9.51471863 16.5,12 C16.5,14.4852814 14.4852814,16.5 12,16.5 L12,16.5 Z M12,9 C10.3431458,9 9,10.3431458 9,12 C9,13.6568542 10.3431458,15 12,15 C13.6568542,15 15,13.6568542 15,12 C15,10.3431458 13.6568542,9 12,9 Z" id="Fill"></path>
                        </g>
                    </g>
                </g>
            </g>
        </g>
    </g>
</svg>