<?xml version="1.0" encoding="UTF-8"?>
<svg width="52px" height="52px" viewBox="0 0 52 52" version="1.1" xmlns="http://www.w3.org/2000/svg" xmlns:xlink="http://www.w3.org/1999/xlink">
    <!-- Generator: Sketch 63.1 (92452) - https://sketch.com -->
    <title>edit</title>
    <desc>Created with Sketch.</desc>
    <defs>
        <filter x="-27.3%" y="-27.3%" width="154.5%" height="154.5%" filterUnits="objectBoundingBox" id="filter-1">
            <feOffset dx="0" dy="2" in="SourceAlpha" result="shadowOffsetOuter1"></feOffset>
            <feGaussianBlur stdDeviation="2" in="shadowOffsetOuter1" result="shadowBlurOuter1"></feGaussianBlur>
            <feColorMatrix values="0 0 0 0 0   0 0 0 0 0   0 0 0 0 0  0 0 0 0.5 0" type="matrix" in="shadowBlurOuter1" result="shadowMatrixOuter1"></feColorMatrix>
            <feMerge>
                <feMergeNode in="shadowMatrixOuter1"></feMergeNode>
                <feMergeNode in="SourceGraphic"></feMergeNode>
            </feMerge>
        </filter>
    </defs>
    <g id="Guile-4---All-Steps-w/-New-Stepper-+-Feedback" stroke="none" stroke-width="1" fill="none" fill-rule="evenodd">
        <g id="5.0-Summary-Page-Short" transform="translate(-253.000000, -546.000000)">
            <g id="edit" filter="url(#filter-1)" transform="translate(257.000000, 548.000000)">
                <circle id="Oval" fill="#00467F" cx="22" cy="22" r="22"></circle>
                <g id="Actions-/-Formatting-/-edit-/-24" transform="translate(10.000000, 10.000000)" fill="#FFFFFF">
                    <path d="M1.5,20.25 L22.5,20.25 L22.5,21.75 L1.5,21.75 L1.5,20.25 Z M19.0575,6.75 C19.3391656,6.46864761 19.49743,6.08686387 19.49743,5.68875 C19.49743,5.29063613 19.3391656,4.90885239 19.0575,4.6275 L16.3725,1.9425 C16.0911476,1.66083444 15.7093639,1.50257002 15.31125,1.50257002 C14.9131361,1.50257002 14.5313524,1.66083444 14.25,1.9425 L3,13.1925 L3,18 L7.8075,18 L19.0575,6.75 Z M15.3075,3 L18,5.6925 L15.75,7.9425 L13.0575,5.25 L15.3075,3 Z M4.5,16.5 L4.5,13.8075 L12,6.3075 L14.6925,9 L7.1925,16.5 L4.5,16.5 Z" id="Fill"></path>
                </g>
            </g>
        </g>
    </g>
</svg>