<?xml version="1.0" encoding="UTF-8"?>
<svg width="20px" height="16px" viewBox="0 0 20 16" version="1.1" xmlns="http://www.w3.org/2000/svg" xmlns:xlink="http://www.w3.org/1999/xlink">
    <!-- Generator: Sketch 63.1 (92452) - https://sketch.com -->
    <title>inbox</title>
    <desc>Created with Sketch.</desc>
    <g id="Symbols" stroke="none" stroke-width="1" fill="none" fill-rule="evenodd">
        <g id="Bottom-Bar" transform="translate(-109.000000, -8.000000)" fill="#FFFFFF" fill-rule="nonzero">
            <g id="Group" transform="translate(27.000000, 6.000000)">
                <g id="Group-4" transform="translate(69.000000, 2.000000)">
                    <g id="inbox" transform="translate(13.000000, 0.500000)">
                        <path d="M19.556875,7.384375 L16.85875,1.21625 C16.560625,0.534375 15.74375,0 15,0 L5,0 C4.25625,0 3.43875,0.53375 3.14125,1.21625 L0.443125,7.384375 C0.195,7.9525 0,8.88125 0,9.50125 L0,13.50125 C0,14.328125 0.673125,15.00125 1.5,15.00125 L18.5,15.00125 C19.326875,15.00125 20,14.328125 20,13.50125 L20,9.50125 C20,8.8825 19.80625,7.9525 19.556875,7.384375 Z M4.056875,1.618125 C4.198125,1.295 4.648125,1.00125 5,1.00125 L15,1.00125 C15.351875,1.00125 15.801875,1.295 15.943125,1.618125 L18.64125,7.78625 C18.67125,7.855 18.70125,7.934375 18.73,8.019375 C18.655,8.0075 18.578125,8.00125 18.5,8.00125 L12.5,8.00125 C12.22375,8.00125 12,8.225 12,8.50125 L12,9.00125 C12,10.104375 11.103125,11.00125 10,11.00125 C8.896875,11.00125 8,10.104375 8,9.00125 L8,8.50125 C8,8.225 7.77625,8.00125 7.5,8.00125 L1.5,8.00125 C1.421875,8.00125 1.345,8.0075 1.27,8.019375 C1.29875,7.934375 1.328125,7.855625 1.35875,7.78625 L4.056875,1.618125 Z M19,13.50125 C19,13.7775 18.77625,14.00125 18.5,14.00125 L1.5,14.00125 C1.22375,14.00125 1,13.7775 1,13.50125 L1,9.50125 C1,9.225 1.22375,9.00125 1.5,9.00125 L7,9.00125 C7,10.655 8.34625,12.00125 10,12.00125 C11.65375,12.00125 13,10.655 13,9.00125 L18.5,9.00125 C18.77625,9.00125 19,9.225 19,9.50125 L19,13.50125 Z" id="Shape"></path>
                    </g>
                </g>
            </g>
        </g>
    </g>
</svg>