<?xml version="1.0" encoding="UTF-8"?>
<svg width="18px" height="16px" viewBox="0 0 18 16" version="1.1" xmlns="http://www.w3.org/2000/svg" xmlns:xlink="http://www.w3.org/1999/xlink">
    <!-- Generator: Sketch 63.1 (92452) - https://sketch.com -->
    <title>Building</title>
    <desc>Created with Sketch.</desc>
    <g id="Symbols" stroke="none" stroke-width="1" fill="none" fill-rule="evenodd">
        <g id="Bottom-Bar" transform="translate(-192.000000, -8.000000)" fill="#FFFFFF">
            <g id="Group" transform="translate(27.000000, 6.000000)">
                <g id="Group-2" transform="translate(140.000000, 1.000000)">
                    <g id="Enterprise-/-Commerce-/-enterprise-/-24" transform="translate(24.000000, 0.000000)">
                        <path d="M17.5,15.75 L17.5,7.875 C17.5,7.25367966 16.9403559,6.75 16.25,6.75 L13.75,6.75 L13.75,2.25 C13.75,1.62867966 13.1903559,1.125 12.5,1.125 L3.75,1.125 C3.05964406,1.125 2.5,1.62867966 2.5,2.25 L2.5,15.75 L1.25,15.75 L1.25,16.875 L18.75,16.875 L18.75,15.75 L17.5,15.75 Z M3.75,2.25 L12.5,2.25 L12.5,15.75 L3.75,15.75 L3.75,2.25 Z M13.75,15.75 L13.75,7.875 L16.25,7.875 L16.25,15.75 L13.75,15.75 Z M6.25,4.5 L7.5,4.5 L7.5,6.75 L6.25,6.75 L6.25,4.5 Z M6.25,7.875 L7.5,7.875 L7.5,10.125 L6.25,10.125 L6.25,7.875 Z M8.75,4.5 L10,4.5 L10,6.75 L8.75,6.75 L8.75,4.5 Z M8.75,7.875 L10,7.875 L10,10.125 L8.75,10.125 L8.75,7.875 Z M6.25,11.25 L7.5,11.25 L7.5,13.5 L6.25,13.5 L6.25,11.25 Z M8.75,11.25 L10,11.25 L10,13.5 L8.75,13.5 L8.75,11.25 Z" id="Fill"></path>
                    </g>
                </g>
            </g>
        </g>
    </g>
</svg>