<?xml version="1.0" encoding="UTF-8"?>
<svg width="44px" height="44px" viewBox="0 0 44 44" version="1.1" xmlns="http://www.w3.org/2000/svg" xmlns:xlink="http://www.w3.org/1999/xlink">
    <title>Icon</title>
    <defs>
        <path d="M22,0 C9.856,0 0,9.856 0,22 C0,34.144 9.856,44 22,44 C34.144,44 44,34.144 44,22 C44,9.856 34.144,0 22,0 L22,0 Z M22,6.6 C25.652,6.6 28.6,9.548 28.6,13.2 C28.6,16.852 25.652,19.8 22,19.8 C18.348,19.8 15.4,16.852 15.4,13.2 C15.4,9.548 18.348,6.6 22,6.6 L22,6.6 Z M22,37.84 C16.5,37.84 11.638,35.024 8.8,30.756 C8.866,26.378 17.6,23.98 22,23.98 C26.378,23.98 35.134,26.378 35.2,30.756 C32.362,35.024 27.5,37.84 22,37.84 L22,37.84 Z" id="path-1"></path>
    </defs>
    <g id="Symbols" stroke="none" stroke-width="1" fill="none" fill-rule="evenodd">
        <g id="Top-Header" transform="translate(-265.000000, -11.000000)">
            <g id="Header-with-Logo" transform="translate(11.000000, 11.000000)">
                <g id="Profile-stacked" transform="translate(187.000000, 0.000000)">
                    <g id="Avatar-icon" transform="translate(67.000000, 0.000000)">
                        <mask id="mask-2" fill="white">
                            <use xlink:href="#path-1"></use>
                        </mask>
                        <use id="Icon" fill="#FFFFFF" fill-rule="nonzero" xlink:href="#path-1"></use>
                    </g>
                </g>
            </g>
        </g>
    </g>
</svg>